# xmcd
#
# Track frame offsets: 
#        150
#        12278
#        22555
#        38780
#        57048
#        77745
#        88718
#        103850
#        120835
#        156573
#
# Disc length: 2288 seconds
#
# Revision: 2
# Processed by: cddbd v1.5.2PL0 Copyright (c) Steve Scherf et al.
# Submitted via: ExactAudioCopy v0.95b3
#
DISCID=6908ee0a
DTITLE=Various Artist - Great Singers ... Great Songs
DYEAR=1900
DGENRE=American Standars
TTITLE0=Lena Horne - Can't Help Lovin' Dat Man Of Mine
TTITLE1=Tony Bennett/Anything Goes
TTITLE2=Nina Simone - Solitude
TTITLE3=Louis Artmstrong - Someday You'll Be Sorry
TTITLE4=Carmmen Mcrae/ (I'm Afraid) The Masquerade Is Over
TTITLE5=Mel Torme - I'm Gettin' Sentimental Over You
TTITLE6=Chriss Connor - It Might As Well Be Spring
TTITLE7=Low Rawls - When A Man Loves A Woman
TTITLE8=Billie Holiday - Fine And Mellow
TTITLE9=Vic Damone - We Have All The Time In The World
EXTD=
EXTT0=
EXTT1=
EXTT2=
EXTT3=
EXTT4=
EXTT5=
EXTT6=
EXTT7=
EXTT8=
EXTT9=
PLAYORDER=
